<svg width="0" height="0" class="hidden">
  <symbol xmlns="http://www.w3.org/2000/svg" viewBox="0 0 24 24" id="search-svgrepo-com">
    <path d="M15.5 14h-.79l-.28-.27C15.41 12.59 16 11.11 16 9.5 16 5.91 13.09 3 9.5 3S3 5.91 3 9.5 5.91 16 9.5 16c1.61 0 3.09-.59 4.23-1.57l.27.28v.79l5 4.99L20.49 19l-4.99-5zm-6 0C7.01 14 5 11.99 5 9.5S7.01 5 9.5 5 14 7.01 14 9.5 11.99 14 9.5 14z"></path>
  </symbol>
  <symbol xmlns="http://www.w3.org/2000/svg" viewBox="0 0 24 24" id="chevron-down-svgrepo-com">
    <path d="M16.59 8.59L12 13.17 7.41 8.59 6 10l6 6 6-6z"></path>
  </symbol>
  <symbol version="1.1" xmlns="http://www.w3.org/2000/svg" xmlns:xlink="http://www.w3.org/1999/xlink" viewBox="0 0 16 16" id="tick-svgrepo-com">
    <rect width="16" height="16" id="icon-bound" fill="none"></rect>
    <path d="M0,9.014L1.414,7.6L5.004,11.189L14.593,1.6L16.007,3.014L5.003,14.017L0,9.014Z"></path>
  </symbol>
  <symbol xmlns="http://www.w3.org/2000/svg" viewBox="0 0 24 24" id="line-svgrepo-com">
    <path d="M23 13H2v-2h21v2z"></path>
  </symbol>
  <symbol xmlns="http://www.w3.org/2000/svg"  viewBox="0 0 24 24" id="settings-svgrepo-com">
    <path d="M19.43 12.98c.04-.32.07-.64.07-.98s-.03-.66-.07-.98l2.11-1.65c.19-.15.24-.42.12-.64l-2-3.46c-.12-.22-.39-.3-.61-.22l-2.49 1c-.52-.4-1.08-.73-1.69-.98l-.38-2.65C14.46 2.18 14.25 2 14 2h-4c-.25 0-.46.18-.49.42l-.38 2.65c-.61.25-1.17.59-1.69.98l-2.49-1c-.23-.09-.49 0-.61.22l-2 3.46c-.13.22-.07.49.12.64l2.11 1.65c-.04.32-.07.65-.07.98s.03.66.07.98l-2.11 1.65c-.19.15-.24.42-.12.64l2 3.46c.12.22.39.3.61.22l2.49-1c.52.4 1.08.73 1.69.98l.38 2.65c.03.24.24.42.49.42h4c.25 0 .46-.18.49-.42l.38-2.65c.61-.25 1.17-.59 1.69-.98l2.49 1c.23.09.49 0 .61-.22l2-3.46c.12-.22.07-.49-.12-.64l-2.11-1.65zM12 15.5c-1.93 0-3.5-1.57-3.5-3.5s1.57-3.5 3.5-3.5 3.5 1.57 3.5 3.5-1.57 3.5-3.5 3.5z"></path>
  </symbol>
  <symbol xmlns="http://www.w3.org/2000/svg" viewBox="0 0 26 26" id="clock-svgrepo-com">
    <g fill="none" fill-rule="evenodd">
      <g>
        <g stroke="#474747" stroke-width="2" transform="translate(1 1)">
          <circle cx="12" cy="12" r="12"></circle>
        </g>
        <path fill="#575757" d="M12 7h1v6h-1zM11.88 13.454l.644-.766 4.596 3.858-.643.766z"></path>
      </g>
    </g>
  </symbol>
  <symbol version="1.1" xmlns="http://www.w3.org/2000/svg" xmlns:xlink="http://www.w3.org/1999/xlink" viewBox="0 -0.5 17 17" id="quote-open-svgrepo-com">
    <title>1031</title>
    <defs></defs>
    <g stroke="none" stroke-width="1" fill="none" fill-rule="evenodd">
      <g transform="translate(1.000000, 1.000000)" fill="#434343">
        <path d="M15,13.969 C15.552,13.969 16,13.534 16,13 C16,12.466 15.552,12.031 15,12.031 C12.243,12.031 11,10.83 11,8.124 L11,6.906 L14.441,6.906 C15.271,6.906 15.947,6.301 15.947,5.468 L15.947,1.512 C15.947,0.678 15.271,0 14.441,0 L10.506,0 C9.676,0 9,0.678 9,1.512 L9,8.124 C9,11.899 11.141,13.969 15,13.969 L15,13.969 Z"></path>
        <path d="M6,13.969 C6.552,13.969 7,13.534 7,13 C7,12.466 6.552,12.031 6,12.031 C3.243,12.031 2,10.83 2,8.124 L2,6.947 L5.467,6.947 C6.301,6.947 6.979,6.271 6.979,5.441 L6.979,1.505 C6.979,0.675 6.301,-0.001 5.467,-0.001 L1.512,-0.001 C0.678,-0.001 0,0.675 0,1.505 L0,8.123 C0,11.899 2.141,13.969 6,13.969 L6,13.969 Z"></path>
      </g>
    </g>
  </symbol>
</svg>